<svg xmlns="http://www.w3.org/2000/svg" width="17.572" height="17.572" viewBox="0 0 17.572 17.572">
  <path id="Icon_awesome-copyright" data-name="Icon awesome-copyright" d="M9.349.563a8.786,8.786,0,1,0,8.786,8.786A8.786,8.786,0,0,0,9.349.563ZM13.5,12.847a5.289,5.289,0,0,1-3.892,1.62A4.991,4.991,0,0,1,4.488,9.31,4.989,4.989,0,0,1,9.581,4.23a5.1,5.1,0,0,1,3.664,1.378.425.425,0,0,1,.044.518L12.5,7.354a.425.425,0,0,1-.646.081,3.6,3.6,0,0,0-2.192-.846,2.536,2.536,0,0,0-2.619,2.7,2.651,2.651,0,0,0,2.631,2.823,3.473,3.473,0,0,0,2.322-1.014.425.425,0,0,1,.656.037l.87,1.189a.425.425,0,0,1-.02.527Z" transform="translate(-0.563 -0.563)" fill="#feefdc"/>
</svg>
